<svg xmlns="http://www.w3.org/2000/svg" viewBox="0 0 696.88 223.73"><path d="M97.15,252.82c-1.15.17-1.74.27-2.34.34-6.63.82-13.25,1.61-19.87,2.45-2.77.35-4.24,2-5,4.68a40.42,40.42,0,0,1-3.18,8c-4,7.48-5.77,15.2-1,22.78a69.5,69.5,0,0,0,10.49,12.38c2,1.92,5,2.8,7.65,3.93,3.21,1.36,6.58,2.33,9.75,3.77S99.81,314.6,103,316c2.18,1,2.93,2.25,2.83,4.62a40.84,40.84,0,0,0,6.37,23.83,45.62,45.62,0,0,0,46.19,20.45c13.83-2.31,25-8.79,31.82-21.42,1.51-2.79,2.31-6,3.44-9-.66-.18-.76-.16-.8-.09a10,10,0,0,0-.57.87c-8.24,14.52-20.73,22.21-37.36,22.75-13.72.44-25.17-4.83-33.69-15.56-13.44-16.93-10.26-41.7,6.9-55.7a24.59,24.59,0,0,0,7.89-11c4.79-13.18,13.83-21.94,27.65-25.05,6.69-1.51,13.34-2.94,19.69-5.64,3.64-1.54,7.35-2.92,11.08-4.25a2.52,2.52,0,0,1,2.24.3,2.73,2.73,0,0,1,.26,2.32,88.4,88.4,0,0,1-3.5,8.82c-1.11,2.31-.82,3.56,1.46,5,6.51,4.22,9.87,10.47,10.94,18.13a139.44,139.44,0,0,0,2.72,13.88c.66,2.64.54,4.77-1.48,6.74-3.16,3.06-6.14,6.31-9.37,9.28a7.17,7.17,0,0,1-4.13,1.95c-3.73.14-7.48-.2-11.35-.36.64.4,1.27.82,1.93,1.2,11.07,6.39,17.66,15.76,17.25,28.75-.41,13.21-7.49,22.76-19.44,27.81-21.25,9-43.24,10.81-65.41,3.61-17-5.53-31.09-15.53-41.21-30.51-3.06-4.52-5.44-9.5-8.23-14.44a4.42,4.42,0,0,0-.06,1.28c1.62,6,2.68,12.24,5,17.95C79,359.16,91.6,370.38,107,378.73c17.83,9.68,36.87,12.64,56.93,10,18.14-2.42,34.89-8.26,49.18-20,17.5-14.37,29.25-32.19,31.75-55.21,2-18.64-2.91-35.38-14.31-50.18-9.08-11.8-21.16-19.78-34.45-25.95-11.17-5.19-20-12.67-25.34-23.91-2.89-6-5.74-12.07-8.88-18-5.12-9.62-11.29-18.47-20-25.32-1.81-1.43-3.77-2.68-6-4.27-.06,1.23-.12,1.82-.11,2.41.11,9,.41,17.95.31,26.92-.12,9.76-4.72,16.59-13.91,20.41a60.46,60.46,0,0,0-24.11,17.47,12.88,12.88,0,0,0-2.56,12.59C96.18,247.93,96.57,250.25,97.15,252.82Z" transform="translate(-62.88 -165.9)" style="fill:#fff"/><path d="M294.32,340.22H268.38v-91.7H340.3v20h-46Zm-1.84-51.48H334.8v20H292.48Z" transform="translate(-62.88 -165.9)" style="fill:#fff"/><path d="M379.6,341.4A34.47,34.47,0,0,1,364.08,338a24.2,24.2,0,0,1-10.75-10.67q-3.85-7.27-3.86-18.41V269.22h24.89v35.63q0,8.25,3.08,11.79t8.71,3.54a13.31,13.31,0,0,0,6.68-1.71,12.13,12.13,0,0,0,4.85-5.43,21.93,21.93,0,0,0,1.83-9.63V269.22H424.4v71H400.69v-20l4.58,5.63a25,25,0,0,1-10.61,11.72A30.43,30.43,0,0,1,379.6,341.4Z" transform="translate(-62.88 -165.9)" style="fill:#fff"/><path d="M486.62,268a32.91,32.91,0,0,1,14.94,3.34,24.4,24.4,0,0,1,10.54,10.28q3.87,6.94,3.87,17.95v40.61H491.08V303.67q0-7.59-3.08-11.07t-8.58-3.47a15,15,0,0,0-7.21,1.77,12.2,12.2,0,0,0-5.11,5.43,21.53,21.53,0,0,0-1.83,9.57v34.32H440.38v-71h23.71v20.17l-4.58-5.89a27.21,27.21,0,0,1,11.13-11.6A32.85,32.85,0,0,1,486.62,268Z" transform="translate(-62.88 -165.9)" style="fill:#fff"/><path d="M532.74,340.22v-91.7h41.92q12.57,0,21.68,4.06a31.76,31.76,0,0,1,14.08,11.72,32.57,32.57,0,0,1,5,18.15,31,31,0,0,1-19.06,29.67q-9.12,4.13-21.68,4.13H547.15L558.67,305v35.24Zm25.93-32.49-11.52-11.92h25.93q8.13,0,12.12-3.54t4-9.82q0-6.42-4-10T573.08,269H547.15L558.67,257Z" transform="translate(-62.88 -165.9)" style="fill:#fff"/><path d="M663.87,341.4q-12.58,0-21.94-4.78a36,36,0,0,1-14.55-13.1,35.11,35.11,0,0,1-5.17-18.93,35.78,35.78,0,0,1,5-18.93,34.68,34.68,0,0,1,14-13,45.28,45.28,0,0,1,39.16-.39,33,33,0,0,1,13.76,12.51q5.11,8.25,5.11,20c0,.87,0,1.88-.13,3s-.18,2.19-.27,3.15H642.65v-13.1h43l-9.43,3.66a16.43,16.43,0,0,0-1.77-8.38,13.75,13.75,0,0,0-5.24-5.5,16.41,16.41,0,0,0-15.59,0,13.27,13.27,0,0,0-5.17,5.57,18.43,18.43,0,0,0-1.83,8.45v3.79a18,18,0,0,0,2.16,9,14.27,14.27,0,0,0,6.22,5.83,21.38,21.38,0,0,0,9.69,2,24.07,24.07,0,0,0,9-1.5,27.33,27.33,0,0,0,7.4-4.65l13.1,13.62a33,33,0,0,1-12.58,8.58A47.92,47.92,0,0,1,663.87,341.4Z" transform="translate(-62.88 -165.9)" style="fill:#fff"/><path d="M703.3,290.44v-18.6h51.48v18.6Zm39.17,51q-13.63,0-21.22-6.75t-7.6-20.37V253.37h24.89V314a8.23,8.23,0,0,0,2.09,6,7.17,7.17,0,0,0,5.37,2.16,12.76,12.76,0,0,0,7.6-2.23l6.16,17.43a22.46,22.46,0,0,1-7.73,3.08A45.85,45.85,0,0,1,742.47,341.4Z" transform="translate(-62.88 -165.9)" style="fill:#fff"/></svg>